<svg width="397" height="238" viewBox="0 0 397 238" fill="none" xmlns="http://www.w3.org/2000/svg">
<g clipPath="url(#clip0_3_58)">
<path d="M71.62 124.33L121.54 198.5C122.54 200.06 123.79 201.73 125.6 202.24C127.88 202.89 130.18 201.48 132.13 200.14L251.13 118.07C253.68 116.31 256.46 114.2 256.9 111.13C257.36 107.84 254.9 104.91 252.69 102.47L198 43.26" stroke="#1E1E1E" strokeWidth="3" strokeLinecap="round" strokeLinejoin="round"/>
<path d="M68.83 125.47L127.73 91.3501C153.24 76.5701 179.23 61.4101 198.78 39.3501" stroke="#1E1E1E" strokeWidth="3" strokeLinecap="round" strokeLinejoin="round"/>
<path d="M71.45 128.77C103.3 131.55 135.37 134.32 167.19 131.22C172.19 130.73 177.29 130.05 181.6 127.52C190.08 122.52 193.16 111.94 195.09 102.3C198.801 83.8231 200.998 65.0742 201.66 46.24" stroke="#1E1E1E" strokeWidth="3" strokeLinecap="round" strokeLinejoin="round"/>
<path d="M103.31 146.85L121.42 177.46" stroke="#1E1E1E" strokeWidth="3" strokeLinecap="round" strokeLinejoin="round"/>
<path d="M191.39 67.8L185.8 101" stroke="#1E1E1E" strokeWidth="3" strokeLinecap="round" strokeLinejoin="round"/>
<path d="M1.5 286.85C1.36773 286.85 1.23626 286.829 1.11 286.79C0.736164 286.687 0.416922 286.442 0.219281 286.109C0.0216411 285.775 -0.0390299 285.378 0.0500024 285C1.05 281.18 2.28 277.31 3.58 273.48C3.64566 273.294 3.74741 273.122 3.87944 272.975C4.01146 272.828 4.17118 272.708 4.34946 272.622C4.52775 272.537 4.72112 272.488 4.91853 272.477C5.11594 272.466 5.31353 272.494 5.5 272.56C5.68648 272.626 5.8582 272.727 6.00535 272.859C6.15251 272.992 6.27222 273.151 6.35765 273.33C6.44308 273.508 6.49255 273.701 6.50325 273.899C6.51395 274.096 6.48566 274.294 6.42 274.48C5.14 278.16 4 282 3 285.74C2.9121 286.067 2.71599 286.355 2.44362 286.557C2.17124 286.758 1.83865 286.862 1.5 286.85V286.85ZM9.18 264.21C8.98451 264.212 8.79056 264.175 8.61 264.1C8.42237 264.026 8.25166 263.914 8.1081 263.772C7.96454 263.631 7.85108 263.461 7.77452 263.275C7.69796 263.088 7.65987 262.888 7.66253 262.686C7.66519 262.484 7.70855 262.285 7.79 262.1C9.28 258.43 10.91 254.72 12.64 251.1C12.7183 250.913 12.8337 250.744 12.9791 250.603C13.1246 250.462 13.297 250.352 13.4862 250.28C13.6753 250.207 13.8771 250.174 14.0795 250.181C14.282 250.189 14.4807 250.237 14.6639 250.324C14.847 250.41 15.0108 250.533 15.1452 250.685C15.2796 250.836 15.382 251.013 15.4461 251.205C15.5102 251.398 15.5348 251.601 15.5183 251.803C15.5017 252.004 15.4445 252.201 15.35 252.38C13.65 255.97 12.04 259.63 10.57 263.25C10.4615 263.531 10.2709 263.773 10.023 263.944C9.77506 264.116 9.48131 264.208 9.18 264.21V264.21ZM19.41 242.6C19.1615 242.605 18.9163 242.542 18.7 242.42C18.358 242.232 18.103 241.917 17.9891 241.544C17.8752 241.17 17.9114 240.767 18.09 240.42C19.98 236.93 22 233.42 24.09 229.99C24.1884 229.814 24.3213 229.659 24.4808 229.536C24.6403 229.412 24.8231 229.322 25.0182 229.271C25.2133 229.22 25.4168 229.208 25.6164 229.238C25.816 229.267 26.0077 229.336 26.18 229.441C26.3523 229.546 26.5016 229.684 26.6191 229.849C26.7365 230.013 26.8196 230.199 26.8635 230.396C26.9074 230.592 26.9111 230.796 26.8744 230.995C26.8377 231.193 26.7614 231.382 26.65 231.55C24.58 234.94 22.59 238.4 20.72 241.85C20.5874 242.08 20.3963 242.27 20.1662 242.402C19.9361 242.534 19.6752 242.602 19.41 242.6V242.6ZM31.86 222.19C31.5573 222.189 31.2616 222.098 31.01 221.93C30.6832 221.705 30.4588 221.36 30.3857 220.971C30.3126 220.581 30.3968 220.178 30.62 219.85C32.84 216.57 35.19 213.28 37.62 210.06C37.8587 209.742 38.214 209.531 38.6079 209.475C39.0017 209.419 39.4017 209.521 39.72 209.76C40.0383 209.999 40.2487 210.354 40.3049 210.748C40.3612 211.142 40.2587 211.542 40.02 211.86C37.63 215.04 35.31 218.3 33.11 221.53C32.9726 221.735 32.7864 221.903 32.5683 222.018C32.3501 222.133 32.1067 222.192 31.86 222.19ZM46.21 203.06C45.9243 203.061 45.6441 202.981 45.4025 202.829C45.1608 202.676 44.9677 202.458 44.8458 202.2C44.724 201.941 44.6785 201.654 44.7146 201.37C44.7508 201.087 44.8671 200.82 45.05 200.6C47.57 197.6 50.21 194.48 52.9 191.49C53.1714 191.219 53.5363 191.062 53.9197 191.052C54.3032 191.042 54.676 191.179 54.9616 191.435C55.2471 191.691 55.4237 192.047 55.455 192.429C55.4864 192.811 55.3701 193.191 55.13 193.49C52.47 196.49 49.86 199.49 47.36 202.49C47.2234 202.665 47.0491 202.808 46.85 202.906C46.6509 203.005 46.4322 203.057 46.21 203.06V203.06ZM62.21 185.28C61.9147 185.28 61.6261 185.192 61.3802 185.029C61.1344 184.865 60.9423 184.633 60.8281 184.36C60.7138 184.088 60.6824 183.788 60.7379 183.498C60.7934 183.208 60.9333 182.941 61.14 182.73C63.91 179.9 66.8 177.07 69.73 174.32C70.0208 174.057 70.4032 173.918 70.7953 173.933C71.1873 173.948 71.5578 174.116 71.8273 174.402C72.0967 174.687 72.2437 175.066 72.2368 175.458C72.2298 175.851 72.0694 176.225 71.79 176.5C68.89 179.23 66.03 182.03 63.29 184.83C63.1475 184.974 62.9776 185.088 62.7904 185.165C62.6032 185.242 62.4025 185.281 62.2 185.28H62.21ZM79.63 168.89C79.3235 168.893 79.0235 168.802 78.7704 168.629C78.5173 168.456 78.3232 168.21 78.2143 167.923C78.1054 167.637 78.0868 167.324 78.1611 167.026C78.2355 166.729 78.3991 166.462 78.63 166.26C81.63 163.65 84.73 161.05 87.85 158.55C88.0036 158.427 88.1801 158.335 88.3693 158.279C88.5585 158.224 88.7567 158.207 88.9526 158.228C89.1486 158.249 89.3384 158.309 89.5112 158.404C89.6841 158.499 89.8366 158.626 89.96 158.78C90.0834 158.934 90.1754 159.11 90.2307 159.299C90.2859 159.489 90.3034 159.687 90.282 159.883C90.2606 160.079 90.2009 160.268 90.1062 160.441C90.0115 160.614 89.8836 160.767 89.73 160.89C86.64 163.37 83.57 165.94 80.59 168.52C80.3229 168.758 79.9777 168.89 79.62 168.89H79.63ZM447.63 122.64C447.351 122.636 447.078 122.557 446.84 122.41C443.52 120.33 440.08 118.31 436.6 116.41C436.415 116.322 436.25 116.197 436.116 116.043C435.981 115.889 435.879 115.709 435.817 115.514C435.755 115.319 435.733 115.114 435.753 114.91C435.773 114.706 435.834 114.509 435.933 114.33C436.032 114.151 436.167 113.994 436.329 113.869C436.491 113.744 436.677 113.653 436.875 113.602C437.073 113.552 437.28 113.543 437.482 113.575C437.684 113.607 437.877 113.68 438.05 113.79C441.57 115.73 445.05 117.79 448.43 119.89C448.597 119.993 448.743 120.129 448.857 120.288C448.972 120.448 449.054 120.629 449.099 120.82C449.144 121.012 449.15 121.21 449.117 121.404C449.085 121.598 449.014 121.783 448.91 121.95C448.775 122.159 448.59 122.332 448.372 122.452C448.154 122.573 447.909 122.637 447.66 122.64H447.63ZM426.72 111.1C426.495 111.098 426.273 111.047 426.07 110.95C422.55 109.25 418.9 107.6 415.24 106.06C415.051 105.989 414.879 105.88 414.733 105.74C414.587 105.6 414.471 105.432 414.392 105.247C414.313 105.061 414.272 104.861 414.272 104.66C414.271 104.458 414.312 104.258 414.39 104.072C414.469 103.886 414.585 103.718 414.73 103.578C414.875 103.438 415.047 103.328 415.236 103.256C415.425 103.184 415.626 103.151 415.827 103.158C416.029 103.166 416.227 103.214 416.41 103.3C420.11 104.86 423.8 106.52 427.41 108.3C427.716 108.448 427.963 108.696 428.109 109.003C428.256 109.31 428.294 109.657 428.218 109.988C428.141 110.32 427.954 110.615 427.687 110.826C427.42 111.037 427.09 111.151 426.75 111.15L426.72 111.1ZM404.72 101.82C404.543 101.819 404.367 101.789 404.2 101.73C400.52 100.38 396.73 99.1101 392.94 97.9201C392.742 97.8704 392.556 97.781 392.394 97.6571C392.232 97.5332 392.097 97.3776 391.997 97.1996C391.897 97.0217 391.834 96.8253 391.813 96.6223C391.792 96.4194 391.812 96.2142 391.872 96.0194C391.933 95.8245 392.033 95.6441 392.166 95.4891C392.298 95.3342 392.461 95.2079 392.645 95.1181C392.828 95.0283 393.028 94.9768 393.231 94.9669C393.435 94.9569 393.639 94.9886 393.83 95.0601C397.67 96.2601 401.5 97.5501 405.23 98.9101C405.561 99.0304 405.84 99.2636 406.017 99.5688C406.193 99.874 406.257 100.232 406.196 100.579C406.135 100.926 405.954 101.241 405.684 101.468C405.414 101.695 405.073 101.82 404.72 101.82V101.82ZM381.86 94.7001C381.734 94.7147 381.606 94.7147 381.48 94.7001C377.68 93.7001 373.79 92.7701 369.91 91.9301C369.521 91.8439 369.182 91.6073 368.966 91.272C368.751 90.9367 368.677 90.5298 368.76 90.1401C368.801 89.948 368.88 89.7661 368.993 89.6047C369.105 89.4433 369.247 89.3057 369.413 89.1998C369.578 89.0938 369.763 89.0216 369.956 88.9874C370.15 88.9531 370.348 88.9574 370.54 89.0001C374.47 89.8401 378.4 90.7901 382.24 91.7901C382.638 91.8405 382.999 92.0468 383.245 92.3638C383.491 92.6807 383.6 93.0822 383.55 93.4801C383.5 93.8779 383.293 94.2394 382.976 94.4851C382.659 94.7307 382.258 94.8405 381.86 94.7901V94.7001ZM251.31 89.7901C250.912 89.8219 250.518 89.6944 250.214 89.4356C249.91 89.1768 249.722 88.8079 249.69 88.4101C249.658 88.0122 249.786 87.6181 250.044 87.3143C250.303 87.0104 250.672 86.8219 251.07 86.7901C255.07 86.1401 259.02 85.5501 262.96 85.0401C263.358 84.9883 263.76 85.0968 264.078 85.3415C264.396 85.5862 264.603 85.9472 264.655 86.3451C264.707 86.7429 264.598 87.145 264.354 87.4628C264.109 87.7807 263.748 87.9883 263.35 88.0401C259.44 88.5401 255.48 89.1201 251.56 89.7701L251.31 89.7901ZM358.49 89.6301H358.23C354.35 88.9601 350.4 88.3601 346.47 87.8401C346.273 87.8144 346.083 87.7503 345.911 87.6513C345.739 87.5522 345.588 87.4202 345.466 87.2628C345.345 87.1054 345.256 86.9257 345.205 86.7339C345.153 86.5421 345.139 86.342 345.165 86.1451C345.191 85.9481 345.255 85.7581 345.354 85.5859C345.453 85.4137 345.585 85.2627 345.742 85.1415C345.9 85.0203 346.079 84.9313 346.271 84.8796C346.463 84.8279 346.663 84.8144 346.86 84.8401C350.86 85.3601 354.86 85.9601 358.74 86.6401C359.138 86.6732 359.506 86.863 359.764 87.1678C360.022 87.4725 360.148 87.8672 360.115 88.2651C360.082 88.6629 359.892 89.0312 359.587 89.2891C359.283 89.547 358.888 89.6732 358.49 89.6401V89.6301ZM275 86.7201C274.602 86.7386 274.213 86.5984 273.919 86.3302C273.624 86.062 273.449 85.6879 273.43 85.2901C273.411 84.8922 273.552 84.5033 273.82 84.2089C274.088 83.9145 274.462 83.7386 274.86 83.7201C278.86 83.3501 282.86 83.0401 286.86 82.8101C287.057 82.7951 287.255 82.8201 287.443 82.8835C287.63 82.9469 287.802 83.0474 287.95 83.1791C288.097 83.3107 288.217 83.4708 288.301 83.6496C288.385 83.8285 288.432 84.0225 288.44 84.2201C288.462 84.6164 288.326 85.0052 288.061 85.3014C287.797 85.5975 287.426 85.7768 287.03 85.8001C283.1 86.0301 279.1 86.3401 275.15 86.7101L275 86.7201ZM334.73 86.5201H334.6C330.68 86.1701 326.68 85.8801 322.72 85.6701C322.523 85.6596 322.33 85.6104 322.152 85.5253C321.974 85.4402 321.815 85.3209 321.683 85.1742C321.551 85.0274 321.449 84.8562 321.384 84.6702C321.318 84.4842 321.289 84.287 321.3 84.0901C321.31 83.8931 321.36 83.7001 321.445 83.5221C321.53 83.3442 321.649 83.1847 321.796 83.0528C321.943 82.921 322.114 82.8193 322.3 82.7536C322.486 82.6879 322.683 82.6596 322.88 82.6701C326.88 82.8801 330.88 83.1601 334.88 83.5201C335.278 83.5386 335.652 83.7145 335.92 84.0089C336.188 84.3033 336.329 84.6922 336.31 85.0901C336.291 85.4879 336.116 85.862 335.821 86.1302C335.527 86.3984 335.138 86.5386 334.74 86.5201H334.73ZM298.89 85.3201C298.492 85.3201 298.111 85.162 297.829 84.8807C297.548 84.5994 297.39 84.2179 297.39 83.8201C297.39 83.4222 297.548 83.0407 297.829 82.7594C298.111 82.4781 298.492 82.3201 298.89 82.3201C302.89 82.2301 306.89 82.2101 310.89 82.3201C311.288 82.3201 311.669 82.4781 311.951 82.7594C312.232 83.0407 312.39 83.4222 312.39 83.8201C312.39 84.2179 312.232 84.5994 311.951 84.8807C311.669 85.162 311.288 85.3201 310.89 85.3201C306.94 85.2601 302.89 85.3201 298.98 85.3201H298.89Z" fill="#1E1E1E"/>
<path d="M277.44 58.2099C267.44 55.2999 260.81 43.9199 263.16 33.7899C264.16 29.3699 267.75 24.7899 272.25 25.3599C276.32 25.8699 278.64 30.1499 280.3 33.8999C282.796 30.7158 285.76 27.9276 289.09 25.6299C290.61 24.6299 292.38 23.6299 294.18 23.9499C296.18 24.3099 297.62 26.2799 297.97 28.2999C298.183 30.331 297.926 32.3838 297.22 34.2999C294.11 44.6899 287.77 55.1099 277.51 58.6299" stroke="#1E1E1E" strokeWidth="2" strokeLinecap="round" strokeLinejoin="round"/>
<path d="M255 16.4C251.8 17.75 248.45 19.04 245 18.92C241.55 18.8 237.89 16.92 236.73 13.67C236.263 12.2547 236.273 10.7252 236.759 9.31626C237.245 7.90731 238.18 6.69667 239.42 5.87002C240.699 5.10486 242.194 4.7805 243.675 4.94668C245.156 5.11287 246.542 5.76043 247.62 6.79002C247.941 5.13781 248.662 3.5894 249.72 2.28002C250.87 1.06002 252.91 0.510024 254.24 1.53002C255.57 2.55002 255.6 4.10002 255.61 5.53002C255.649 9.78369 255.043 14.0187 253.81 18.09" stroke="#1E1E1E" strokeWidth="2" strokeLinecap="round" strokeLinejoin="round"/>
<path d="M294 26.6499C293.26 26.7024 292.539 26.9071 291.881 27.2513C291.224 27.5954 290.645 28.0716 290.18 28.6499" stroke="#1E1E1E" strokeLinecap="round" strokeLinejoin="round"/>
<path d="M265.69 34.6201C265.041 39.0698 266.029 43.6037 268.47 47.3801" stroke="#1E1E1E" strokeLinecap="round" strokeLinejoin="round"/>
<path d="M240 9.33008C239.721 9.98791 239.595 10.7003 239.631 11.4139C239.667 12.1274 239.864 12.8236 240.208 13.45C240.551 14.0765 241.032 14.617 241.615 15.0309C242.197 15.4448 242.865 15.7215 243.57 15.8401" stroke="#1E1E1E" strokeLinecap="round" strokeLinejoin="round"/>
<path d="M196.85 108.054C199.402 111.422 200.579 115.549 202.939 119.09" stroke="#1E1E1E" strokeWidth="2" strokeLinecap="round"/>
<path d="M201.798 105.39C203.66 107.998 204.271 111.193 205.984 113.762" stroke="#1E1E1E" strokeWidth="2" strokeLinecap="round"/>
<path d="M199.134 114.143C200.89 112.437 203.907 111.169 205.223 109.196" stroke="white" strokeWidth="2" strokeLinecap="round"/>
<path d="M206.365 109.956C208.432 109.513 209.554 109.058 210.508 107.081C210.699 106.686 211.493 104.303 210.551 104.248C208.134 104.106 207.126 106.207 207.126 108.434C207.126 109.911 206.547 111.859 208.479 111.859C211.162 111.859 212.454 111.144 212.454 108.434" stroke="#1E1E1E" strokeWidth="2" strokeLinecap="round"/>
<path d="M210.17 97.3979C211.905 99.7569 213.381 101.93 214.145 104.777C214.497 106.088 214.803 107.277 215.498 108.434" stroke="#1E1E1E" strokeWidth="2" strokeLinecap="round"/>
<path d="M212.453 95.1145C215.95 97.8914 218.234 103.774 219.304 108.054" stroke="#1E1E1E" strokeWidth="2" strokeLinecap="round"/>
<path d="M220.826 97.3979C219.362 99.4724 218.209 106.658 222.433 106.151C223.851 105.981 223.87 100.93 223.87 99.7659C223.87 97.8961 223.742 97.461 221.968 97.0173" stroke="#1E1E1E" strokeWidth="2" strokeLinecap="round"/>
<path d="M191.142 130.126C192.288 132.465 193.117 134.843 193.975 137.294C194.496 138.783 194.14 136.654 193.996 136.194C193.155 133.501 193.425 130.631 193.425 127.843" stroke="#1E1E1E" strokeWidth="2" strokeLinecap="round"/>
<path d="M194.948 125.179C197.464 125.651 198.753 126.282 198.753 128.837C198.753 131.195 198.132 132.548 196.533 134.27C195.294 135.605 196.016 135.352 197.252 135.476C201.414 135.892 201.39 140.782 197.231 140.782" stroke="#1E1E1E" strokeWidth="2" strokeLinecap="round"/>
<path d="M204.842 129.746C203.254 131.434 201.798 134.383 201.798 136.765C201.798 138.852 204.309 137.215 204.673 135.962C204.878 135.256 204.674 130.888 205.794 130.888C206.93 130.888 207.606 132.41 209.028 132.41" stroke="#1E1E1E" strokeWidth="2" strokeLinecap="round"/>
<path d="M208.267 128.224C209.8 128.493 210.939 128.859 212.2 129.746C212.58 130.013 213.188 131.058 213.405 130.232C213.617 129.426 213.047 125.793 214.187 126.934C217.877 130.624 217.02 125.097 217.02 122.515" stroke="#1E1E1E" strokeWidth="2" strokeLinecap="round"/>
<path d="M219.684 121.374C222.363 122.121 223.008 124.489 225.202 125.708C226.061 126.185 225.295 122.008 226.344 121.775C227.401 121.54 229.103 123.01 229.198 120.908C229.272 119.294 229.198 117.663 229.198 116.046" stroke="#1E1E1E" strokeWidth="2" strokeLinecap="round"/>
<path d="M235.287 112.621C234.697 113.23 230.162 119.797 232.623 120.232C234.157 120.502 235.914 120.313 236.64 118.794C237.56 116.872 237.9 114.803 237.951 112.705C237.985 111.31 238.827 113.141 239.114 113.572C240.152 115.128 243.005 113.692 244.04 113.001" stroke="#1E1E1E" strokeWidth="2" strokeLinecap="round"/>
<path d="M197.612 115.284C199.418 114.475 201.828 113.316 203.109 111.669C203.686 110.927 204.523 111.296 204.842 110.337" stroke="#1E1E1E" strokeWidth="2" strokeLinecap="round"/>
</g>
<defs>
<clipPath id="clip0_3_58">
<rect width="449.16" height="286.85" fill="white"/>
</clipPath>
</defs>
</svg>
